<svg
        version="1.1"
        xmlns="http://www.w3.org/2000/svg"
        viewBox="-2590.2084825610386 -1610.6240188598633 7695.8727312182655 2427.648001098633"
      >
        <desc>Created with Snap</desc>
        <defs></defs>
        <g>
          <g transform="matrix(4.1973,0,0,4.1973,-2600.161,-1471.3143)">
            <rect
              x="376"
              y="136"
              width="16"
              height="16"
              fill="#ffffff"
              style=""
            ></rect>
            <rect
              x="376"
              y="168"
              width="16"
              height="16"
              fill="#ffffff"
              style=""
            ></rect>
            <rect
              x="344"
              y="152"
              width="16"
              height="16"
              fill="#ffffff"
              style=""
            ></rect>
            <rect
              x="176"
              y="208"
              width="16"
              height="16"
              fill="#ffffff"
              style=""
            ></rect>
            <rect
              x="176"
              y="176"
              width="16"
              height="16"
              fill="#ffffff"
              style=""
            ></rect>
            <rect
              x="208"
              y="192"
              width="16"
              height="16"
              fill="#ffffff"
              style=""
            ></rect>
            <path
              d="M488,344H442.642a88.034,88.034,0,0,0-12.248-151.2A88.085,88.085,0,0,0,359.038,89.282a88.024,88.024,0,0,0-159.045,2.034A88.115,88.115,0,0,0,138.45,196.7,89.089,89.089,0,0,0,116.118,216H104a8,8,0,0,0-8,8v2.815A71.883,71.883,0,0,0,40,200a8,8,0,0,0-8,8,72.1,72.1,0,0,0,43.408,66.064A103.988,103.988,0,0,0,120,472a103.078,103.078,0,0,0,38.662-7.432A23.925,23.925,0,0,0,176,472H392a39.964,39.964,0,0,0,32-16.028V456h64a8,8,0,0,0,8-8V416a8,8,0,0,0-8-8h-8V392h8a8,8,0,0,0,8-8V352A8,8,0,0,0,488,344ZM151.482,207.743a8,8,0,0,0,3.989-9.6A72.084,72.084,0,0,1,207.6,105.872a8,8,0,0,0,5.606-4.8,72.021,72.021,0,0,1,133.015-1.357,8,8,0,0,0,6.409,4.8,72.046,72.046,0,0,1,60.742,90.792,8,8,0,0,0,4.8,9.607,72.024,72.024,0,0,1,8.51,130.2,40.046,40.046,0,0,0-52.133-16.029l-32,15.517,47.926-65.9a8,8,0,0,0-1.67-11.1l-32-24a8,8,0,0,0-11.2,1.6L328,258.668V240a8,8,0,0,0-8-8H256a8,8,0,0,0-8,8v18.668L230.4,235.2a8,8,0,0,0-11.2-1.6l-32,24a8,8,0,0,0-1.67,11.1L240.29,344H221.176A103.865,103.865,0,0,0,144,266.828V224a8,8,0,0,0-5.647-7.647A72.323,72.323,0,0,1,151.482,207.743ZM223.683,360H248v20.443l-27.17,13.173A103.939,103.939,0,0,0,224,368C224,365.319,223.885,362.648,223.683,360Zm38.787-12.7L203.106,265.67,222.4,251.2l27.2,36.27a8,8,0,0,0,14.4-4.8V248h48v34.67a8,8,0,0,0,14.4,4.8l27.2-36.27,19.294,14.47L313.53,347.3a7.955,7.955,0,0,0-.98,1.851L264,372.685V352A8,8,0,0,0,262.47,347.3ZM128,232v32.329c-2.655-.2-5.322-.329-8-.329s-5.348.115-8,.316V232ZM48.67,216.67a56.135,56.135,0,0,1,46.66,46.66A56.135,56.135,0,0,1,48.67,216.67ZM152,442.023V448c0,.662.034,1.316.087,1.965a87.934,87.934,0,1,1,48.486-46.527l-35.044,16.991A24.137,24.137,0,0,0,152,442.023ZM256,456H240V432a8,8,0,0,1,16,0Zm64,0H304V432a8,8,0,0,1,16,0Zm64,0H368V432a8,8,0,0,1,16,0Zm32-24a24.039,24.039,0,0,1-16,22.624V432a24,24,0,0,0-48,0v24H336V432a24,24,0,0,0-48,0v24H272V432a24,24,0,0,0-48,0v24H176a8.009,8.009,0,0,1-8-8v-5.977a8.045,8.045,0,0,1,4.51-7.2L381.529,333.482A24,24,0,0,1,416,355.078Zm64,8H431.2a40.028,40.028,0,0,0,.805-8v-8h48Zm-16-32H432V392h32Zm16-32H432V360h48Z"
              fill="#ffffff"
              style=""
            ></path>
            <rect
              x="48"
              y="376"
              width="16"
              height="16"
              fill="#ffffff"
              style=""
            ></rect>
            <rect
              x="48"
              y="344"
              width="16"
              height="16"
              fill="#ffffff"
              style=""
            ></rect>
            <rect
              x="80"
              y="360"
              width="16"
              height="16"
              fill="#ffffff"
              style=""
            ></rect>
            <desc>Created with Snap</desc>
            <defs></defs>
          </g>
          <g>
            <g transform="matrix(1.024,0,0,-1.024,0,0)">
              <path
                d="M77 0Q61 0 49 11Q38 23 38 39L38 742Q38 759 49 770Q60 781 77 781L546 781Q563 781 574 770Q585 760 585 743Q585 728 574 717Q563 706 546 706L116 706L116 430L429 430Q446 430 457 419Q468 408 468 392Q468 376 457 365Q446 354 429 354L116 354L116 39Q116 23 105 11Q94 0 77 0ZM964 -5Q884 -5 821 31Q758 67 722 130Q686 193 686 273Q686 354 722 417Q758 480 821 516Q884 552 964 552Q1044 552 1106 516Q1169 480 1205 417Q1241 354 1242 273Q1242 193 1205 130Q1169 67 1106 31Q1044 -5 964 -5ZM964 65Q1022 65 1068 92Q1114 119 1140 166Q1166 213 1166 273Q1166 333 1140 380Q1114 428 1068 455Q1022 482 964 482Q906 482 860 455Q814 428 787 380Q761 333 761 273Q761 213 787 166Q814 119 860 92Q906 65 964 65ZM1641 -5Q1561 -5 1498 31Q1435 67 1399 130Q1363 193 1363 273Q1363 354 1399 417Q1435 480 1498 516Q1561 552 1641 552Q1721 552 1783 516Q1846 480 1882 417Q1918 354 1919 273Q1919 193 1882 130Q1846 67 1783 31Q1721 -5 1641 -5ZM1641 65Q1699 65 1745 92Q1791 119 1817 166Q1843 213 1843 273Q1843 333 1817 380Q1791 428 1745 455Q1699 482 1641 482Q1583 482 1537 455Q1491 428 1464 380Q1438 333 1438 273Q1438 213 1464 166Q1491 119 1537 92Q1583 65 1641 65ZM2318 -5Q2239 -5 2176 31Q2113 68 2076 131Q2040 194 2040 274Q2040 353 2075 416Q2111 479 2172 515Q2233 552 2310 552Q2377 552 2431 523Q2485 495 2518 448L2518 742Q2518 760 2529 770Q2540 781 2557 781Q2574 781 2585 770Q2596 760 2596 742L2596 270Q2594 192 2557 129Q2521 67 2458 31Q2396 -5 2318 -5ZM2318 65Q2376 65 2421 92Q2467 120 2493 167Q2520 214 2520 274Q2520 333 2493 380Q2467 428 2421 455Q2376 482 2318 482Q2261 482 2215 455Q2169 428 2142 380Q2115 333 2115 274Q2115 214 2142 167Q2169 120 2215 92Q2261 65 2318 65ZM3245 0Q3228 0 3217 11Q3206 22 3206 38L3206 298Q3206 360 3182 400Q3159 440 3118 460Q3078 480 3027 480Q2978 480 2938 461Q2899 442 2876 409Q2853 376 2853 334L2798 334Q2800 397 2832 446Q2864 496 2917 524Q2970 553 3035 553Q3106 553 3162 523Q3218 494 3250 437Q3283 380 3283 298L3283 38Q3283 22 3272 11Q3261 0 3245 0ZM2815 0Q2797 0 2786 10Q2776 21 2776 38L2776 508Q2776 526 2786 536Q2797 547 2815 547Q2832 547 2842 536Q2853 526 2853 508L2853 38Q2853 21 2842 10Q2832 0 2815 0ZM2815 223Q2797 223 2786 234Q2776 245 2776 262L2776 742Q2776 760 2786 770Q2797 781 2815 781Q2832 781 2842 770Q2853 760 2853 742L2853 262Q2853 245 2842 234Q2832 223 2815 223ZM3691 -6Q3620 -6 3564 23Q3508 53 3475 110Q3443 167 3443 249L3443 509Q3443 525 3454 536Q3465 547 3481 547Q3498 547 3509 536Q3520 525 3520 509L3520 249Q3520 187 3543 147Q3567 107 3607 87Q3648 67 3699 67Q3748 67 3787 86Q3827 105 3850 138Q3873 171 3873 213L3928 213Q3925 150 3893 100Q3862 51 3809 22Q3756 -6 3691 -6ZM3911 0Q3894 0 3883 10Q3873 21 3873 39L3873 509Q3873 526 3883 536Q3894 547 3911 547Q3928 547 3939 536Q3950 526 3950 509L3950 39Q3950 21 3939 10Q3928 0 3911 0ZM4407 -5Q4329 -5 4266 31Q4204 67 4167 129Q4131 192 4130 270L4130 742Q4130 760 4140 770Q4151 781 4169 781Q4186 781 4196 770Q4207 760 4207 742L4207 448Q4240 495 4294 523Q4349 552 4416 552Q4493 552 4554 515Q4615 479 4650 416Q4686 353 4686 274Q4686 194 4649 131Q4613 68 4550 31Q4487 -5 4407 -5ZM4407 65Q4465 65 4511 92Q4557 120 4583 167Q4610 214 4610 274Q4610 333 4583 380Q4557 428 4511 455Q4465 482 4407 482Q4350 482 4304 455Q4258 428 4232 380Q4206 333 4206 274Q4206 214 4232 167Q4258 120 4304 92Q4350 65 4407 65Z"
                fill="#ffffff"
                style=""
              ></path>
            </g>
          </g>
        </g>
      </svg>